# xmcd
#
# Track frame offsets: 
#        150
#        10061
#        22648
#        39075
#        51335
#        67751
#        77921
#        96368
#        111880
#        128203
#
# Disc length: 1935 seconds
#
# Revision: 0
# Processed by: cddbd v1.5.2PL0 Copyright (c) Steve Scherf et al.
# Submitted via: ExactAudioCopy v1.3
#
DISCID=6f078d0a
DTITLE=Lynn Anderson - Back
DYEAR=1983
DGENRE=Country
TTITLE0=You Can't Lose What You Never Had
TTITLE1=Love Comes Around Again
TTITLE2=What I Learned From Loving You
TTITLE3=Your Kisses Lied
TTITLE4=At This Moment
TTITLE5=Fool For Love
TTITLE6=Heartbreak Kid
TTITLE7=This Time The Heartbreak Wins
TTITLE8=Mr Sundown
TTITLE9=You're Welcome To Tonight
EXTD=
EXTT0=
EXTT1=
EXTT2=
EXTT3=
EXTT4=
EXTT5=
EXTT6=
EXTT7=
EXTT8=
EXTT9=
PLAYORDER=
